# xmcd CD database file generated by Grip 2.95
# 
# Track frame offsets:
#       150
#       20872
#       38456
#       57463
#       81788
#       92265
#       112184
#       127304
#       147678
#       162695
#       186562
#       206212
# 
# Disc length: 2979 seconds
# 
# Revision: 3
# Processed by: cddbd v1.4b42PL1 Copyright (c) Steve Scherf et al.
# Submitted via: Grip 2.95
# 
DISCID=be0ba10c
DTITLE=R.E.M. - Automatic For The People
DYEAR=1900
DGENRE=
TTITLE0=Drive
TTITLE1=Try Not To Breath
TTITLE2=The Sidewinders Sleeps Tonite
TTITLE3=Everybody Hurts
TTITLE4=New Orleans Instrumental No. 1
TTITLE5=Sweetness Folllows
TTITLE6=Monty Got A Raw Deal
TTITLE7=Ignoreland
TTITLE8=Star Me Kitten
TTITLE9=Man On The Moon
TTITLE10=Nightswimming
TTITLE11=Find The River
EXTD=
EXTT0=
EXTT1=
EXTT2=
EXTT3=
EXTT4=
EXTT5=
EXTT6=
EXTT7=
EXTT8=
EXTT9=
EXTT10=
EXTT11=
PLAYORDER=
